<?xml version="1.0" encoding="UTF-8"?>
<svg width="69px" height="82px" viewBox="0 0 69 82" version="1.1" xmlns="http://www.w3.org/2000/svg" xmlns:xlink="http://www.w3.org/1999/xlink">
    <!-- Generator: Sketch 54.1 (76490) - https://sketchapp.com -->
    <title>Logo</title>
    <desc>Created with Sketch.</desc>
    <g id="Subpages-👌" stroke="none" stroke-width="1" fill="none" fill-rule="evenodd">
        <g id="Kulture" transform="translate(-685.000000, -14.000000)">
            <g id="Group-5" transform="translate(48.000000, 0.000000)">
                <g id="Logo" transform="translate(639.000000, 16.000000)">
                    <polygon id="Fill-1" fill="#FFFFFF" points="5.94006683 69.8619376 2.14979455 73.9624532 2.14979455 69.8619376 -3.21782178e-05 69.8619376 -3.21782178e-05 79.736673 2.14979455 79.736673 2.14979455 75.0506486 6.11908498 79.736673 9.1232434 79.736673 4.41009983 74.4502687 8.75104868 69.8619376"></polygon>
                    <polygon id="Fill-2" fill="#FFFFFF" points="12.3482302 75.5243202 8.68238036 69.861905 11.3561757 69.861905 13.4234117 73.5581872 15.6145338 69.861905 18.1644431 69.861905 14.4985932 75.5243202 14.4985932 79.736749 12.3482302 79.736749"></polygon>
                    <polygon id="Fill-3" fill="#FFFFFF" points="18.9634068 69.861905 22.2163028 69.861905 24.4626642 76.3057585 24.4900157 76.3057585 26.750321 69.861905 29.9892731 69.861905 29.9892731 79.736749 27.8394464 79.736749 27.8394464 72.1634518 27.8115586 72.1634518 25.248349 79.736749 23.6084398 79.736749 21.1411213 72.1634518 21.1137698 72.1634518 21.1137698 79.736749 18.9634068 79.736749"></polygon>
                    <path d="M33.7649686,74.799251 C33.7649686,75.2641628 33.8365116,75.6896716 33.9789538,76.0757775 C34.1208597,76.461232 34.3256205,76.7961031 34.5919488,77.0797395 C34.85817,77.3632673 35.1781287,77.5839457 35.5502162,77.7423175 C35.9217673,77.9005807 36.3375099,77.9794953 36.7970149,77.9794953 C37.2564125,77.9794953 37.6721551,77.9005807 38.0442426,77.7423175 C38.4164373,77.5839457 38.7357525,77.3632673 39.0026172,77.0797395 C39.2688383,76.7961031 39.4730627,76.461232 39.615505,76.0757775 C39.7579472,75.6896716 39.8294901,75.2641628 39.8294901,74.799251 C39.8294901,74.3438915 39.7579472,73.9206621 39.615505,73.5299973 C39.4730627,73.1397666 39.2688383,72.8025075 39.0026172,72.5188711 C38.7357525,72.2352347 38.4164373,72.0146649 38.0442426,71.8562931 C37.6721551,71.6985726 37.2564125,71.6191153 36.7970149,71.6191153 C36.3375099,71.6191153 35.9217673,71.6985726 35.5502162,71.8562931 C35.1781287,72.0146649 34.85817,72.2352347 34.5919488,72.5188711 C34.3256205,72.8025075 34.1208597,73.1397666 33.9789538,73.5299973 C33.8365116,73.9206621 33.7649686,74.3438915 33.7649686,74.799251 M31.5326584,74.799251 C31.5326584,74.0090204 31.6634092,73.2928195 31.9251254,72.6512999 C32.1873779,72.0098887 32.5526007,71.4636744 33.0206865,71.0123311 C33.4894158,70.5616391 34.0452409,70.2155875 34.6883762,69.9737422 C35.3315116,69.7317883 36.0346056,69.6106486 36.7970149,69.6106486 C37.5599604,69.6106486 38.2624109,69.7317883 38.9060825,69.9737422 C39.5486815,70.2155875 40.1050429,70.5616391 40.573236,71.0123311 C41.0419653,71.4636744 41.4070809,72.0098887 41.6693333,72.6512999 C41.9310495,73.2928195 42.0619076,74.0090204 42.0619076,74.799251 C42.0619076,75.5895902 41.9310495,76.305791 41.6693333,76.9472022 C41.4070809,77.5887218 41.0419653,78.1353704 40.573236,78.586171 C40.1050429,79.0369715 39.5486815,79.3835658 38.9060825,79.6248684 C38.2624109,79.8667137 37.5599604,79.987962 36.7970149,79.987962 C36.0346056,79.987962 35.3315116,79.8667137 34.6883762,79.6248684 C34.0452409,79.3835658 33.4894158,79.0369715 33.0206865,78.586171 C32.5526007,78.1353704 32.1873779,77.5887218 31.9251254,76.9472022 C31.6634092,76.305791 31.5326584,75.5895902 31.5326584,74.799251" id="Fill-4" fill="#FFFFFF"></path>
                    <polygon id="Fill-7" fill="#FFFFFF" points="43.6051964 69.861905 46.5271931 69.861905 50.6757162 76.7242117 50.7030677 76.7242117 50.7030677 69.861905 52.8534307 69.861905 52.8534307 79.736749 50.0419125 79.736749 45.7829109 72.7072782 45.7556667 72.7072782 45.7556667 79.736749 43.6051964 79.736749"></polygon>
                    <path d="M56.6285792,74.799251 C56.6285792,75.2641628 56.7001221,75.6896716 56.8425644,76.0757775 C56.984363,76.461232 57.1891238,76.7961031 57.4554521,77.0797395 C57.7217805,77.3632673 58.041632,77.5839457 58.4138267,77.7423175 C58.7852706,77.9005807 59.2011205,77.9794953 59.6605182,77.9794953 C60.1199158,77.9794953 60.5356584,77.9005807 60.9078531,77.7423175 C61.2799406,77.5839457 61.5992558,77.3632673 61.8661205,77.0797395 C62.1324488,76.7961031 62.3366733,76.461232 62.4791155,76.0757775 C62.6215578,75.6896716 62.6931007,75.2641628 62.6931007,74.799251 C62.6931007,74.3438915 62.6215578,73.9206621 62.4791155,73.5299973 C62.3366733,73.1397666 62.1324488,72.8025075 61.8661205,72.5188711 C61.5992558,72.2352347 61.2799406,72.0146649 60.9078531,71.8562931 C60.5356584,71.6985726 60.1199158,71.6191153 59.6605182,71.6191153 C59.2011205,71.6191153 58.7852706,71.6985726 58.4138267,71.8562931 C58.041632,72.0146649 57.7217805,72.2352347 57.4554521,72.5188711 C57.1891238,72.8025075 56.984363,73.1397666 56.8425644,73.5299973 C56.7001221,73.9206621 56.6285792,74.3438915 56.6285792,74.799251 M54.3961617,74.799251 C54.3961617,74.0090204 54.5270198,73.2928195 54.788736,72.6512999 C55.0509884,72.0098887 55.416104,71.4636744 55.884297,71.0123311 C56.3529191,70.5616391 56.9088515,70.2155875 57.5519868,69.9737422 C58.1951221,69.7317883 58.8981089,69.6106486 59.6605182,69.6106486 C60.4234637,69.6106486 61.1259142,69.7317883 61.7696931,69.9737422 C62.4121848,70.2155875 62.9686535,70.5616391 63.4368465,71.0123311 C63.9055759,71.4636744 64.2706914,72.0098887 64.5329439,72.6512999 C64.7946601,73.2928195 64.9255182,74.0090204 64.9255182,74.799251 C64.9255182,75.5895902 64.7946601,76.305791 64.5329439,76.9472022 C64.2706914,77.5887218 63.9055759,78.1353704 63.4368465,78.586171 C62.9686535,79.0369715 62.4121848,79.3835658 61.7696931,79.6248684 C61.1259142,79.8667137 60.4234637,79.987962 59.6605182,79.987962 C58.8981089,79.987962 58.1951221,79.8667137 57.5519868,79.6248684 C56.9088515,79.3835658 56.3529191,79.0369715 55.884297,78.586171 C55.416104,78.1353704 55.0509884,77.5887218 54.788736,76.9472022 C54.5270198,76.305791 54.3961617,75.5895902 54.3961617,74.799251" id="Fill-9" fill="#FFFFFF"></path>
                    <polygon id="Fill-12" stroke="#FFFFFF" stroke-width="3" points="0.0226320132 65.6678426 64.9117244 65.6678426 64.9117244 0 0.0226320132 0"></polygon>
                    <polygon id="Fill-15" stroke="#FFFFFF" stroke-width="3" stroke-linejoin="round" points="30.7118564 32.7325916 64.9117244 65.6678426 64.9117244 0.00814111262"></polygon>
                    <polygon id="Fill-18" stroke="#FFFFFF" stroke-width="3" stroke-linejoin="round" points="0.334031353 32.6535685 34.1851947 65.6678426 64.9117459 65.6678426 30.7118779 32.7327001"></polygon>
                    <polygon id="Fill-20" stroke="#FFFFFF" stroke-width="3" stroke-linejoin="round" points="0.334975248 32.6535685 34.4357343 0.00814111262 64.9117244 0 30.7127145 32.7395387"></polygon>
                    <path d="M48.2763795,32.8380136 C48.2763795,30.3029796 50.3070396,28.2480543 52.8118993,28.2480543 C55.3168663,28.2480543 57.3474191,30.3029796 57.3474191,32.8380136 C57.3474191,35.3729389 55.3168663,37.4279729 52.8118993,37.4279729 C50.3070396,37.4279729 48.2763795,35.3729389 48.2763795,32.8380136" id="Fill-22" fill="#FFFFFF"></path>
                </g>
            </g>
        </g>
    </g>
</svg>